<svg width="6" height="6" viewBox="0.5 0.8 6 6" fill="none" xmlns="http://www.w3.org/2000/svg">
<path d="M3.332 0.555664C2.96736 0.555664 2.60629 0.627486 2.2694 0.767028C1.93252 0.906571 1.62642 1.1111 1.36858 1.36894C0.847843 1.88968 0.555298 2.59594 0.555298 3.33237C0.555298 4.55967 1.35221 5.60094 2.45457 5.97024C2.5934 5.99246 2.63783 5.90638 2.63783 5.83141C2.63783 5.76754 2.63783 5.59261 2.63783 5.36214C1.86868 5.52875 1.70485 4.99006 1.70485 4.99006C1.57713 4.66797 1.39664 4.58189 1.39664 4.58189C1.14396 4.40973 1.41608 4.41529 1.41608 4.41529C1.69375 4.43472 1.84091 4.70129 1.84091 4.70129C2.08249 5.12335 2.49066 4.99839 2.64893 4.93175C2.67392 4.75127 2.74612 4.62909 2.82387 4.55967C2.20744 4.49026 1.56047 4.25146 1.56047 3.19354C1.56047 2.88532 1.66598 2.63819 1.84647 2.44105C1.8187 2.37163 1.72151 2.08285 1.87423 1.708C1.87423 1.708 2.10748 1.63303 2.63783 1.99122C2.85719 1.93013 3.09598 1.89959 3.332 1.89959C3.56802 1.89959 3.80682 1.93013 4.02618 1.99122C4.55653 1.63303 4.78978 1.708 4.78978 1.708C4.94249 2.08285 4.84531 2.37163 4.81754 2.44105C4.99803 2.63819 5.10354 2.88532 5.10354 3.19354C5.10354 4.25424 4.45379 4.48748 3.83459 4.5569C3.93455 4.64298 4.02618 4.81236 4.02618 5.07059C4.02618 5.44267 4.02618 5.74255 4.02618 5.83141C4.02618 5.90638 4.07061 5.99523 4.21222 5.97024C5.31457 5.59816 6.10871 4.55967 6.10871 3.33237C6.10871 2.96773 6.03689 2.60666 5.89735 2.26977C5.7578 1.93289 5.55327 1.62678 5.29543 1.36894C5.03759 1.1111 4.73149 0.906571 4.3946 0.767028C4.05772 0.627486 3.69665 0.555664 3.332 0.555664Z" fill="black"/>
</svg>
